<?xml version="1.0" encoding="utf-8"?>
<!-- Generator: Adobe Illustrator 24.0.1, SVG Export Plug-In . SVG Version: 6.00 Build 0)  -->
<svg version="1.1" id="Camada_1" xmlns="http://www.w3.org/2000/svg" xmlns:xlink="http://www.w3.org/1999/xlink" x="0px" y="0px"
	 viewBox="0 0 883.41 730.21" style="enable-background:new 0 0 883.41 730.21;" xml:space="preserve">
<style type="text/css">
	.st0{fill:#FFFFFF;}
</style>
<g>
	<path class="st0" d="M95.96,578.16c-23.83,0-43.48,0-65.92,0c0-51.47,0-101.02,0-150.56c0-22.41-0.64-44.85,0.16-67.23
		c1.59-44.36,19.89-77.71,62.96-95.41c6.97-2.86,13.31-11.55,16.33-19c18.96-46.83,36.96-94.05,55.15-141.19
		c23.01-59.62,46.85-76.45,109.81-76.52c110.39-0.11,220.79-0.13,331.18,0.01c61,0.07,84.79,16.11,107.39,72.98
		c18.95,47.7,36.67,95.9,56.18,143.36c3.52,8.57,11.78,17.27,20.1,21.44c37.45,18.8,59.35,47.14,59.51,89.92
		c0.26,72.95,0.07,145.91,0.07,221.92c-21.61,0-41.81,0-64.78,0c0,25.97,0.38,48.97-0.09,71.95c-0.78,38.54-23.36,62.82-58.57,63.72
		c-38.95,1-64.43-22.22-66.16-61.71c-1.01-23.13-0.18-46.34-0.18-71.32c-146.44,0-291.15,0-439.14,0c0,22.44,0.42,44.56-0.09,66.66
		c-0.95,41.31-24.1,66.02-61.54,66.47c-38.17,0.46-61.08-23.21-62.26-65.23C95.44,626.2,95.96,603.95,95.96,578.16z M703.46,259.23
		c-18.52-49.31-34.55-96.27-54.33-141.59c-4.76-10.9-21.84-23.13-33.42-23.31c-116.95-1.75-233.93-1.61-350.89-0.35
		c-11.02,0.12-27.88,8.92-31.88,18.11c-20.66,47.54-38.01,96.51-57.34,147.14C352.34,259.23,525.48,259.23,703.46,259.23z
		 M720.82,442.48c30.05-0.32,54.54-25.33,54.65-55.81c0.11-30.62-26.93-57.56-56.98-56.75c-29.98,0.81-53.89,25.83-54.01,56.52
		C664.36,418.76,688.55,442.82,720.82,442.48z M214.43,387.42c0.35-31.25-23.23-56.8-53.09-57.54
		c-30.94-0.77-56.89,25.4-56.56,57.04c0.32,31.67,23.82,55.45,54.85,55.53C190.95,442.54,214.07,419.32,214.43,387.42z"/>
</g>
</svg>
